<svg xmlns="http://www.w3.org/2000/svg" version="1.1" xmlns:xlink="http://www.w3.org/1999/xlink" xmlns:svgjs="http://svgjs.dev/svgjs" width="100%" height="100%" viewBox="0 0 1000 600"><rect width="1000" height="600" x="0" y="0" fill="#ffffff"/><g><rect width="333.3333333333333" height="333.3333333333333" y="77.77780045403293" fill="#ffffff" transform="matrix(2.25000013732911,0,0,2.25000013732911,0,-250.00003738403575)" x="55.555564880371094"/><path d="M156.42933564043236 314.07726445862L156.42933564043236 314.07726445862Q155.56462043628073 314.07726445862 154.9086295917519 314.07726445862Q154.28245651288347 314.07726445862 153.41774130873185 313.8685400989972L153.41774130873185 313.8685400989972Q153.00029258948624 313.8685400989972 152.463572807599 313.7492690363556Q151.9268530257118 313.6598157393744 151.4795865408058 313.6598157393744L151.4795865408058 313.6598157393744Q148.05054348985968 313.4212736140912 145.03894915815917 312.3478340503167Q142.0273548264587 311.2743944865423 139.04557826041858 309.7835062035223L139.04557826041858 309.7835062035223Q138.80703613513538 309.7835062035223 138.71758283815416 309.6642351408807Q138.59831177551257 309.5747818438995 138.38958741588976 309.5747818438995L138.38958741588976 309.5747818438995Q136.24270828834088 308.50134228012496 134.63254894267925 306.9806362314446Q133.0223895970176 305.48974794842445 131.53150131399752 303.99885966540444L131.53150131399752 303.99885966540444Q129.80207090569428 301.85198053785564 129.14608006116543 299.91382576992953L129.14608006116543 299.91382576992953Q128.3111826226742 298.18439536162623 126.99920093361658 296.24624059370024L126.99920093361658 296.24624059370024Q124.85232180606769 293.8906371065285 123.77888224229326 290.2528696959596L123.77888224229326 290.2528696959596Q123.15270916342484 288.5234392876563 122.49671831889601 286.82382664501347Q121.8705452400276 285.0943962367103 121.42327875512159 283.1562414687842L121.42327875512159 283.1562414687842Q121.21455439549878 282.53006838991575 121.00583003587597 281.75480648274527Q120.79710567625317 281.00936234123526 120.34983919134714 280.14464713708367L120.34983919134714 280.14464713708367Q119.93239047210153 279.07120757330927 119.60439504983712 277.78904364991195Q119.27639962757272 276.50687972651474 118.8589509083271 275.22471580311753L118.8589509083271 275.22471580311753Q118.6502265487043 274.3600005989658 118.32223112643987 272.3323925340586Q117.99423570417548 270.2749667034909 117.99423570417548 269.8575179842453L117.99423570417548 269.8575179842453L117.99423570417548 260.614010629521Q118.20296006379829 259.33184670612377 118.4116844234211 258.1391360797078Q118.6502265487043 256.97624321895205 118.8589509083271 255.69407929555481L118.8589509083271 255.69407929555481L119.06767526794991 255.45553717027164Q119.06767526794991 255.69407929555481 119.18694633059151 255.69407929555481Q119.27639962757272 255.69407929555481 119.27639962757272 255.90280365517762L119.27639962757272 255.90280365517762Q119.48512398719552 255.90280365517762 119.48512398719552 255.99225695215884Q119.48512398719552 256.11152801480046 119.48512398719552 256.11152801480046L119.48512398719552 256.11152801480046Q119.72366611247872 256.32025237442326 119.72366611247872 255.90280365517762L119.72366611247872 255.90280365517762Q119.72366611247872 254.62063973178041 119.48512398719552 253.75592452762876L119.48512398719552 253.75592452762876Q119.48512398719552 253.30865804272273 119.39567069021432 252.8912093234771Q119.27639962757272 252.4737606042315 120.14111483172434 252.23521847894833L120.14111483172434 252.23521847894833Q120.34983919134714 252.23521847894833 120.34983919134714 251.6090454000799L120.34983919134714 251.6090454000799L122.28799395927322 242.15681368573277Q122.49671831889601 241.08337412195837 122.70544267851884 240.1292056208255Q122.94398480380204 239.14521935403226 123.15270916342484 238.28050414988067L123.15270916342484 238.28050414988067L123.57015788267046 235.92490066270895Q123.36143352304765 236.372167147615 123.89815330493487 234.43401237968894Q124.43487308682208 232.4958576117629 124.6435974464449 231.83986676723404L124.6435974464449 231.83986676723404Q125.09086393135091 230.76642720345964 125.83630807286093 229.69298763968519Q126.58175221437097 228.61954807591073 126.79047657399377 228.20209935666512L126.79047657399377 228.20209935666512Q128.51990698229702 226.26394458873907 130.01079526531709 222.83490153779294L130.01079526531709 222.83490153779294L134.095829160792 216.39426415514632Q134.96054436494364 215.52954895099472 134.96054436494364 214.24738502759746L134.96054436494364 214.24738502759746Q134.75182000532084 213.17394546382306 135.58671744381206 211.8917815404258L135.58671744381206 211.8917815404258Q136.24270828834088 210.60961761702853 136.9881524298509 209.2976359279709Q137.73359657136092 208.01547200457364 138.59831177551257 206.73330808117643L138.59831177551257 206.73330808117643Q139.671751339287 205.00387767287313 141.07318632532582 203.18499396758867Q142.47462131136467 201.36611026230426 143.75678523476194 199.8752219792842L143.75678523476194 199.8752219792842Q144.17423395400755 199.2192311347554 144.71095373589475 198.56324029022656Q145.24767351778198 197.93706721135814 146.1123887219336 197.72834285173533L146.1123887219336 197.72834285173533Q146.55965520683964 197.72834285173533 146.76837956646244 197.4898007264521Q146.97710392608525 197.2810763668293 147.18582828570806 197.0723520072065L147.18582828570806 197.0723520072065Q151.4795865408058 192.56986939248597 156.84678435967797 188.6935598566338L156.84678435967797 188.6935598566338Q157.29405084458398 188.2761111373882 157.7114995638296 187.82884465248222Q158.1289482830752 187.4113959332366 158.57621476798124 187.2026715736138L158.57621476798124 187.2026715736138Q159.64965433175567 186.54668072908495 160.9318182551529 186.54668072908495L160.9318182551529 186.54668072908495Q162.00525781892733 186.54668072908495 162.66124866345615 186.33795636946215L162.66124866345615 186.33795636946215Q163.28742174232457 186.33795636946215 164.56958566572183 185.92050765021654L164.56958566572183 185.92050765021654Q166.09029171440227 185.4732411653105 166.95500691855392 186.33795636946215L166.95500691855392 186.33795636946215Q168.23717084195115 187.6201202928594 171.24876517365163 187.2026715736138L171.24876517365163 187.2026715736138Q173.15710217591732 186.993947213991 174.46908386497495 189.34955070116266L174.46908386497495 189.34955070116266Q174.88653258422056 189.97572378003107 175.21452800648498 190.63171462455986Q175.5425234287494 191.2877054690887 176.16869650761782 191.70515418833432L176.16869650761782 191.70515418833432Q176.8246873521466 192.98731811173158 177.9875802129023 194.06075767550598Q179.1802908393183 195.13419723928044 180.04500604346993 196.20763680305484L180.04500604346993 196.20763680305484L182.81805824988726 200.083946338907Q183.26532473479324 200.71011941777542 183.80204451668047 201.48538132494585Q184.33876429856767 202.23082546645585 184.75621301781328 202.85699854532427L184.75621301781328 202.85699854532427Q185.82965258158774 203.93043810909873 186.03837694121054 205.00387767287313L186.03837694121054 205.00387767287313Q186.48564342611658 206.0773172366476 186.81363884838098 206.40531265891198Q187.11181650498497 206.73330808117643 187.35035863026818 208.46273848947968L187.35035863026818 208.46273848947968Q187.55908298989098 209.2976359279709 187.4398119272494 209.4169069906125Q187.35035863026818 209.53617805325408 188.1852560687594 209.53617805325408L188.1852560687594 209.53617805325408Q189.04997127291105 209.53617805325408 189.04997127291105 210.60961761702853L189.04997127291105 210.60961761702853Q189.04997127291105 212.96522110420025 188.1852560687594 214.66483374684307L188.1852560687594 214.66483374684307Q187.7678073495138 215.32082459137192 187.4398119272494 215.32082459137192Q187.11181650498497 215.32082459137192 186.6943677857394 215.73827331061753L186.6943677857394 215.73827331061753Q186.03837694121054 216.81171287439193 185.2929327997005 217.8851524381664Q184.54748865819047 218.9585920019408 183.68277345403888 220.27057369099848L183.68277345403888 220.27057369099848Q183.05660037517043 221.34401325477288 182.0726141083772 222.1789106932641Q181.11844560724438 223.04362589741575 180.04500604346993 223.9083411015674L180.04500604346993 223.9083411015674Q178.31557563516668 225.63777150987065 175.95997214799502 225.1905050249646L175.95997214799502 225.1905050249646Q174.02181738006894 225.1905050249646 173.15710217591732 224.9817806653418L173.15710217591732 224.9817806653418Q172.5309290970489 224.773056305719 171.99420931516167 224.4450608834546Q171.45748953327444 224.1170654611902 170.80149868874562 223.9083411015674L170.80149868874562 223.9083411015674Q170.3840499695 223.9083411015674 169.936783484594 223.4908923823218L169.936783484594 223.4908923823218Q169.7280591249712 223.04362589741575 169.5193347653484 222.71563047515136Q169.31061040572558 222.41745281854733 168.86334392081957 222.1789106932641L168.86334392081957 222.1789106932641Q167.78990435704512 221.55273761439568 167.16373127817673 220.56875134760244Q166.50774043364788 219.61458284646963 166.09029171440227 218.74986764231798L166.09029171440227 218.74986764231798Q165.88156735477946 218.12369456344956 165.88156735477946 217.46770371892077Q165.88156735477946 216.81171287439193 165.88156735477946 216.39426415514632L165.88156735477946 216.39426415514632Q165.64302522949626 215.1121002317491 165.55357193251507 213.82993630835185Q165.43430086987345 212.51795461929416 165.01685215062784 211.23579069589695L165.01685215062784 211.23579069589695Q165.01685215062784 210.81834197665134 163.9434125868534 210.81834197665134L163.9434125868534 210.81834197665134Q162.66124866345615 211.683057180803 161.34926697439852 212.51795461929416Q160.06710305100125 213.38266982344587 158.99366348722683 214.66483374684307L158.99366348722683 214.66483374684307L152.34430174495742 222.62617717817014Q151.6883109004286 223.25235025703856 151.15159111854138 224.027612164209Q150.61487133665418 224.773056305719 150.19742261740853 225.39922938458741L150.19742261740853 225.39922938458741Q149.3327074132569 226.47266894836187 148.5872632717469 227.66537957477792Q147.84181913023687 228.85809020119396 146.76837956646244 229.93152976496836L146.76837956646244 229.93152976496836Q146.3211130815564 230.34897848421397 146.1123887219336 230.76642720345964L146.1123887219336 230.76642720345964Q145.48621564306518 232.28713325214008 144.71095373589475 233.5692971755373Q143.96550959438474 234.85146109893455 143.33933651551632 236.5808915072378L143.33933651551632 236.5808915072378Q142.26589695174187 238.72777063478665 141.49063504457146 241.20264518459996Q140.74519090306143 243.64770196875284 140.32774218381581 246.24184758120774L140.32774218381581 246.24184758120774Q140.119017824193 249.46216627253105 139.04557826041858 252.6824849638543L139.04557826041858 252.6824849638543Q138.80703613513538 253.75592452762876 138.59831177551257 255.03808845102603Q138.38958741588976 256.32025237442326 138.18086305626696 257.60241629782047L138.18086305626696 257.60241629782047Q137.97213869664415 259.5405710657466 137.5248722117381 261.4787258336727Q137.1074234924925 263.4168806015987 137.3161478521153 265.5637597291476L137.3161478521153 265.5637597291476Q137.73359657136092 269.8575179842453 138.59831177551257 273.70400975443704L138.59831177551257 273.70400975443704Q139.2543026200414 275.85088888198595 139.79102240192861 277.90831471255365Q140.32774218381581 279.93592277746086 140.95391526268423 282.0828019050098L140.95391526268423 282.0828019050098Q141.19245738796747 282.73879274953856 141.40118174759027 283.364965828407Q141.60990610721308 284.02095667293577 141.81863046683588 284.67694751746467L141.81863046683588 284.67694751746467Q143.10079439023312 287.6587240835047 146.55965520683964 289.388154491808L146.55965520683964 289.388154491808Q147.84181913023687 290.0441453363368 149.3327074132569 290.0441453363368L149.3327074132569 290.0441453363368Q150.61487133665418 290.0441453363368 151.9268530257118 290.133598633318Q153.20901694910904 290.2528696959596 154.49118087250628 290.0441453363368L154.49118087250628 290.0441453363368Q160.5143695359073 289.388154491808 165.64302522949626 288.1059905684107L165.64302522949626 288.1059905684107Q168.02844648232835 287.6587240835047 170.1753256098772 286.82382664501347Q172.3222047374261 285.9591114408619 174.46908386497495 285.0943962367103L174.46908386497495 285.0943962367103Q176.16869650761782 284.4384053921814 177.68940255629826 283.1562414687842L177.68940255629826 283.1562414687842Q179.3890151989411 281.87407754538697 181.20789890422557 280.47264255934806Q183.05660037517043 279.07120757330927 184.75621301781328 277.58031929028914L184.75621301781328 277.58031929028914Q186.48564342611658 276.0894310072691 188.1852560687594 274.56872495858863Q189.91468647706267 273.0778366755686 191.40557476008271 271.3484062672653L191.40557476008271 271.3484062672653Q192.06156560461153 270.7222331883969 193.34372952800877 269.8575179842453L193.34372952800877 269.8575179842453Q193.9997203725376 269.4102514993393 194.62589345140603 268.9928027800937Q195.28188429593484 268.5753540608481 195.69933301518049 268.128087575942L195.69933301518049 268.128087575942Q196.7727725789549 267.5019144970736 197.75675884574812 266.8459236525448Q198.71092734688096 266.189932808016 199.9930912702782 266.189932808016L199.9930912702782 266.189932808016Q200.64908211480704 265.7724840887704 201.39452625631705 265.6532130261288Q202.13997039782708 265.5637597291476 202.7959612423559 265.3550353695248L202.7959612423559 265.3550353695248Q204.73411601028195 264.699044524996 206.22500429330202 265.3550353695248L206.22500429330202 265.3550353695248Q206.88099513783084 265.5637597291476 207.50716821669926 265.7724840887704Q208.16315906122807 265.9812084483932 208.81914990575692 266.4284749332992L208.81914990575692 266.4284749332992Q210.51876254839974 267.5019144970736 212.03946859708023 269.8575179842453L212.03946859708023 269.8575179842453Q213.11290816085466 272.42184583103983 213.11290816085466 274.3600005989658L213.11290816085466 274.3600005989658L213.11290816085466 275.64216452236315Q213.11290816085466 278.44503449444073 210.96602903330577 280.59191362198965L210.96602903330577 280.59191362198965Q208.58060778047368 283.60350795369015 206.01627993367921 285.3031205963331L206.01627993367921 285.3031205963331Q204.52539165065915 286.1678358004847 203.0046856019787 287.6587240835047L203.0046856019787 287.6587240835047Q200.85780647442985 289.388154491808 198.62147404989977 291.3263092597341Q196.35532385970927 293.2644640276601 193.9997203725376 294.9640766703029L193.9997203725376 294.9640766703029L193.13500516838596 295.8287918744546Q192.47901432385717 296.24624059370024 191.85284124498875 296.902231438229Q191.1968504004599 297.5582222827578 190.3321351963083 297.9756710020034L190.3321351963083 297.9756710020034Q188.84124691328824 299.46655928502355 186.90309214536217 300.65926991143954Q184.9649373774361 301.85198053785564 183.05660037517043 302.92542010163004L183.05660037517043 302.92542010163004Q181.11844560724438 303.76031754012126 179.3890151989411 305.48974794842445L179.3890151989411 305.48974794842445Q178.76284212007272 306.14573879295335 178.10685127554387 306.77191187182177Q177.45086043101506 307.42790271635056 176.6159629925238 307.84535143559617L176.6159629925238 307.84535143559617Q173.81309302044613 309.36605748427667 170.1753256098772 310.8569457672967L170.1753256098772 310.8569457672967Q169.936783484594 311.0656701269195 169.5193347653484 311.2743944865423Q169.10188604610278 311.51293661182547 168.65461956119677 311.7216609714483L168.65461956119677 311.7216609714483Q167.37245563779953 312.3478340503167 165.97102065176068 312.6758294725812Q164.56958566572183 313.0038248948456 163.28742174232457 313.2125492544684L163.28742174232457 313.2125492544684Q161.58780909968172 313.4212736140912 159.85837869137848 313.5405446767328Q158.1289482830752 313.6598157393744 156.42933564043236 314.07726445862ZM279.01017027034084 319.4444622774921L279.01017027034084 319.4444622774921Q274.92513637486593 319.0270135582466 272.3608085280714 316.4328679457917L272.3608085280714 316.4328679457917Q268.9317654771253 313.0038248948456 267.6197837880677 308.054075795219L267.6197837880677 308.054075795219Q266.7848863495765 303.76031754012126 265.0554559412732 299.7051014103067L265.0554559412732 299.7051014103067L261.83513724994987 291.1175849001112Q260.5529733265526 287.6587240835047 259.2708094031554 284.4384053921814Q257.95882771409777 281.21808670085807 256.6766637907005 277.99776800953475L256.6766637907005 277.99776800953475L255.39449986730327 274.3600005989658Q254.97705114805765 273.49528539481423 254.64905572579323 272.7498412533042Q254.32106030352884 272.0043971117942 253.90361158428323 271.1396819076425L253.90361158428323 271.1396819076425Q253.4563450993772 270.0662423438681 252.91962531749 268.8735317174521Q252.38290553560276 267.7106388566964 251.75673245673434 266.637199292922L251.75673245673434 266.637199292922Q250.89201725258272 264.2815958057504 250.02730204843107 261.8961745529183Q249.16258684427945 259.5405710657466 248.089147280505 257.18496757857486L248.089147280505 257.18496757857486Q247.8804229208822 256.76751885932924 247.67169856125938 256.23079907744204Q247.4629742016366 255.69407929555481 247.01570771673056 255.03808845102603L247.01570771673056 255.03808845102603Q245.73354379333335 252.02649411932552 244.3321088072945 248.9254464906438Q242.93067382125565 245.7945810963017 241.4397855382356 242.57426240497838L241.4397855382356 242.57426240497838L234.99914815558898 227.7846506374195Q233.5082598725689 224.1170654611902 231.89810052690726 220.47929805062128Q230.2879411812456 216.81171287439193 228.76723513256516 213.17394546382306L228.76723513256516 213.17394546382306L227.48507120916793 209.53617805325408Q227.27634684954512 208.8801872087253 227.06762248992231 208.22419636419644Q226.8290803646391 207.59802328532803 226.4116316453935 206.94203244079924L226.4116316453935 206.94203244079924Q226.4116316453935 206.52458372155363 226.2029072857707 206.0773172366476Q225.9941829261479 205.65986851740197 225.9941829261479 205.45114415777917L225.9941829261479 205.45114415777917Q225.54691644124185 203.72171374947592 224.80147229973184 202.11155440381427Q224.05602815822184 200.5013950581526 223.19131295407018 199.01050677513254L223.19131295407018 199.01050677513254L222.11787339029573 196.65490328796088Q221.90914903067292 195.99891244343203 221.58115360840853 195.34292159890325Q221.25315818614413 194.71674852003483 220.8357094668985 194.06075767550598L220.8357094668985 194.06075767550598Q221.0444338265213 192.98731811173158 221.0444338265213 191.91387854795713Q221.0444338265213 190.84043898418267 221.25315818614413 189.97572378003107L221.25315818614413 189.97572378003107Q221.90914903067292 186.993947213991 222.11787339029573 186.66595179172654Q222.32659774991853 186.33795636946215 224.92074336237343 184.39980160153604L224.92074336237343 184.39980160153604Q225.12946772199624 184.19107724191323 225.9941829261479 183.77362852266762L225.9941829261479 183.77362852266762Q227.48507120916793 182.7001889588932 228.76723513256516 182.908913318516L228.76723513256516 182.908913318516Q229.6319503367168 182.908913318516 230.37739447822682 182.5809178962516Q231.12283861973685 182.2529224739872 231.98755382388848 182.46164683361002L231.98755382388848 182.46164683361002Q233.2697177472857 182.46164683361002 233.71698423219172 182.7001889588932L233.71698423219172 182.7001889588932Q234.99914815558898 183.1176376781388 235.2078725152118 183.1176376781388L235.2078725152118 183.1176376781388Q237.14602728313784 183.53508639738442 237.80201812766668 184.84706808644208L237.80201812766668 184.84706808644208Q238.0107424872895 185.05579244606488 238.2194668469123 185.2645168056877Q238.4281912065351 185.4732411653105 238.6369155661579 185.6819655249333L238.6369155661579 185.6819655249333Q241.02233681898997 187.6201202928594 241.4397855382356 190.63171462455986L241.4397855382356 190.63171462455986Q241.85723425748122 192.12260290757993 242.39395403936842 193.7327622532416Q242.93067382125565 195.34292159890325 243.58666466578447 196.86362764758368L243.58666466578447 196.86362764758368Q244.6601042295589 199.2192311347554 245.73354379333335 201.78355898154987Q246.80698335710778 204.3777045940047 247.67169856125938 206.73330808117643L247.67169856125938 206.73330808117643Q248.95386248465664 209.53617805325408 250.14657311107268 212.30923025967135Q251.30946597182833 215.1121002317491 252.59162989522557 218.12369456344956L252.59162989522557 218.12369456344956Q253.66506945900002 220.47929805062128 254.73850902277445 222.95417260043453Q255.81194858654888 225.39922938458741 256.6766637907005 227.7846506374195L256.6766637907005 227.7846506374195Q257.54137899485215 229.48426328006238 258.28682313636216 231.30314698534684Q259.03226727787217 233.15184845629167 259.688258122401 235.06018545855736L259.688258122401 235.06018545855736L259.8969824820238 235.92490066270895Q261.62641289032706 239.35394371365507 263.0278478763659 242.90225782724278Q264.39946509674434 246.45057194083054 265.9201711454248 250.08833935139947L265.9201711454248 250.08833935139947Q266.33761986467044 250.74433019592826 266.5463442242932 251.4003210404571Q266.7848863495765 252.02649411932552 266.99361070919923 252.6824849638543L266.99361070919923 252.6824849638543Q267.8583259133509 253.54720016800596 268.3950456952381 254.82936409140322Q268.9317654771253 256.11152801480046 269.3492141963709 257.18496757857486L269.3492141963709 257.18496757857486Q270.00520504089974 258.91439798687816 270.6313781197682 260.52455733253976Q271.287368964297 262.13471667820147 272.1520841684486 263.8343293208443L272.1520841684486 263.8343293208443Q272.5695328876942 265.3550353695248 273.3149770292042 266.5179282302804Q274.0604211707143 267.7106388566964 274.92513637486593 268.9928027800937L274.92513637486593 268.9928027800937Q275.3724028597719 269.2015271397165 275.7898515790175 268.7840784204709L275.7898515790175 268.7840784204709Q276.65456678316923 267.0546480121676 277.40001092467924 265.444488666506Q278.14545506618924 263.8343293208443 278.80144591071803 262.13471667820147L278.80144591071803 262.13471667820147Q279.42761898958645 260.19656191027536 280.20288089675694 258.37767820499096Q280.94832503826694 256.52897673404607 281.57449811713536 254.62063973178041L281.57449811713536 254.62063973178041Q281.57449811713536 254.38209760649718 281.69376917977695 254.38209760649718Q281.81304024241854 254.38209760649718 281.81304024241854 254.17337324687438L281.81304024241854 254.17337324687438Q282.88647980619294 250.95305455555106 283.9599193699674 247.7327358642278Q285.03335893374185 244.5124171729045 285.8682563722331 241.29209848158118L285.8682563722331 241.29209848158118L289.0885750635564 229.27553892043957Q290.400556752614 224.32578982081301 291.6827206760113 219.40585848684682Q292.9648845994085 214.45610938722027 294.4557728824286 209.74490241287688L294.4557728824286 209.74490241287688Q294.6943150077118 208.67146284910248 294.9924926643158 207.80674764495083Q295.3204880865802 206.94203244079924 295.529212446203 206.0773172366476L295.529212446203 206.0773172366476L300.06151282658396 194.92547287965763Q300.4789615458296 193.85203331588318 300.89641026507513 193.10658917437317Q301.3436767499812 192.3611450328631 301.55240110960403 191.4964298287115L301.55240110960403 191.4964298287115Q302.62584067337843 189.76699942040827 303.2818315179072 187.82884465248222Q303.90800459677564 185.92050765021654 304.56399544130454 183.98235288229043L304.56399544130454 183.98235288229043Q304.7727198009273 183.1176376781388 304.98144416055015 182.3721935366288Q305.1901685201729 181.6267493951188 304.98144416055015 180.76203419096714L304.98144416055015 180.76203419096714Q304.7727198009273 180.10604334643836 305.1901685201729 178.8238794230411L305.1901685201729 178.8238794230411L306.50215020923054 175.81228509134058Q307.7843141326278 172.38324204039446 311.0046328239511 171.1010781169972L311.0046328239511 171.1010781169972Q312.07807238772557 170.4450872724684 313.15151195149997 170.0276385532228L313.15151195149997 170.0276385532228Q314.22495151527437 169.16292334907115 315.29839107904877 169.58037206831676L315.29839107904877 169.58037206831676Q316.7892793620689 169.8189141936 318.1907143481077 170.0276385532228Q319.5921493341466 170.2363629128456 320.8743132575438 170.65381163209122L320.8743132575438 170.65381163209122Q322.6037436658471 171.30980247662 323.43864110433833 172.80069075964008L323.43864110433833 172.80069075964008Q323.8859075892443 173.24795724454611 324.0946319488671 173.66540596379173Q324.3033563084899 174.11267244869777 324.51208066811273 174.53012116794338L324.51208066811273 174.53012116794338L325.1680715126415 176.25955157624662Q325.58552023188713 176.67700029549223 325.91351565415164 177.00499571775663Q326.24151107641603 177.33299114002102 326.24151107641603 177.95916421888944L326.24151107641603 177.95916421888944Q326.24151107641603 178.8238794230411 326.3607821390576 179.5693235645511Q326.45023543603884 180.31476770606116 326.45023543603884 181.38820726983556L326.45023543603884 181.38820726983556Q325.37679587226444 185.92050765021654 323.8859075892443 189.55827506078546L323.8859075892443 189.55827506078546Q323.6771832296215 190.42299026493706 323.2299167447155 191.37715876606993Q322.8124680254699 192.3611450328631 322.36520154056393 193.43458459663756L322.36520154056393 193.43458459663756Q322.156477180941 193.64330895626037 322.156477180941 194.06075767550598L322.156477180941 194.06075767550598Q320.665588897921 196.86362764758368 319.6816026311278 199.7559509166426Q318.727434129995 202.64827418570147 317.4452702065977 205.65986851740197L317.4452702065977 205.65986851740197Q316.5805550024461 207.80674764495083 315.8351108609361 209.8343557098581Q315.0896667194261 211.8917815404258 314.22495151527437 214.03866066797465L314.22495151527437 214.03866066797465Q313.3602363111228 216.1855397955235 312.8235165292356 218.33241892307237Q312.2867967473484 220.47929805062128 311.86934802810276 222.62617717817014L311.86934802810276 222.62617717817014Q311.6308059028195 223.4908923823218 311.4220815431967 224.2363365238318Q311.213357183574 224.9817806653418 311.0046328239511 225.63777150987065L311.0046328239511 225.63777150987065Q310.34864197942227 228.41082371628792 309.7224689005539 231.21369368836562Q309.06647805602506 233.9867458947829 308.2017628518734 236.7896158668606L308.2017628518734 236.7896158668606Q307.7843141326278 238.93649499440946 307.12832328809895 240.87464976233557Q306.50215020923054 242.81280453026162 306.05488372432455 244.7211415325273L306.05488372432455 244.7211415325273Q306.05488372432455 244.95968365781047 305.96543042734334 245.16840801743328Q305.84615936470175 245.37713237705609 305.84615936470175 245.5858567366789L305.84615936470175 245.5858567366789Q304.98144416055015 246.86802066007616 304.6534487382857 248.1800023491338Q304.3552710816817 249.46216627253105 303.90800459677564 250.74433019592826L303.90800459677564 250.74433019592826Q303.4905558775301 252.02649411932552 302.9538360956428 253.42792910536437Q302.4171163137556 254.82936409140322 301.76112546922684 256.11152801480046L301.76112546922684 256.11152801480046Q300.27023718620677 258.91439798687816 300.06151282658396 261.8961745529183L300.06151282658396 261.8961745529183Q299.82297070130073 262.3434410378243 299.7335174043195 262.9696141166927Q299.6142463416779 263.6256049612215 299.1967976224323 264.2815958057504L299.1967976224323 264.2815958057504L296.6026520099774 270.7222331883969Q296.1852032907318 271.5571306268881 295.976478931109 272.213121471417L295.976478931109 272.213121471417Q295.1117637269574 275.43344016274034 294.24704852280576 278.77302991670524Q293.3823333186541 282.0828019050098 292.3088937548797 285.3031205963331L292.3088937548797 285.3031205963331Q291.4739963163885 288.3147149280335 291.02672983148244 291.5350336193568Q290.6092811122369 294.7553523106801 290.1620146273308 297.7669466423806L290.1620146273308 297.7669466423806Q289.7445659080852 301.40471405294954 290.400556752614 304.20758402502724L290.400556752614 304.20758402502724Q290.6092811122369 305.28102358880165 290.6092811122369 306.56318751219897Q290.6092811122369 307.84535143559617 290.6092811122369 308.9187909993706L290.6092811122369 308.9187909993706Q290.81800547185964 311.0656701269195 289.5358415484624 312.7951005352228L289.5358415484624 312.7951005352228Q289.0885750635564 313.2125492544684 288.6711263443108 314.4947131778656L288.6711263443108 314.4947131778656Q286.52424721676186 318.5797470733405 281.81304024241854 319.2357379178694L281.81304024241854 319.2357379178694Q281.15704939788975 319.2357379178694 280.5010585533609 319.3251912148505Q279.8748854744925 319.4444622774921 279.01017027034084 319.4444622774921Z " fill="#111111" transform="matrix(2.25000013732911,0,0,2.25000013732911,0,-250.00003738403575)"/><path d="MNaN 244.4444580078119 " fill="#b88746" transform="matrix(2.25000013732911,0,0,2.25000013732911,0,-250.00003738403575)"/></g></svg>